# xmcd
#
# Track frame offsets: 
#        150
#        21985
#        59257
#        83737
#        102037
#        125130
#        142707
#        162535
#        176220
#        194567
#        214487
#        230785
#
# Disc length: 3573 seconds
#
# Revision: 3
# Processed by: cddbd v1.5.2PL0 Copyright (c) Steve Scherf et al.
# Submitted via: ExactAudioCopy v0.99pb5
#
DISCID=b30df30c
DTITLE=Bryan Lee - Memphis Bound
DYEAR=1993
DGENRE=Blues
TTITLE0=Memphis Bound
TTITLE1=I'll Play The Blues For You
TTITLE2=Welfare Woman
TTITLE3=Blues Every Morning
TTITLE4=My Brains Is Gone
TTITLE5=Spinning 'Round
TTITLE6=Sinking Fast
TTITLE7=Automobile Blues
TTITLE8=Doggin' Down Blues
TTITLE9=Natural Ball
TTITLE10=Little Red Rooster
TTITLE11=Blues For Mr. Brown
EXTD=
EXTT0=
EXTT1=
EXTT2=
EXTT3=
EXTT4=
EXTT5=
EXTT6=
EXTT7=
EXTT8=
EXTT9=
EXTT10=
EXTT11=
PLAYORDER=
